<svg xmlns="http://www.w3.org/2000/svg" viewBox="0 0 100 100">
  <defs>
    <linearGradient id="g" x1="0%" y1="0%" x2="100%" y2="100%">
      <stop offset="0%" stop-color="#c084fc"/>
      <stop offset="100%" stop-color="#67e8f9"/>
    </linearGradient>
  </defs>
  <rect width="100" height="100" rx="18" fill="#0b1120"/>
  <line x1="50" y1="14" x2="82" y2="32" stroke="url(#g)" stroke-width="1.8" fill="none" opacity=".55"/>
  <line x1="82" y1="32" x2="82" y2="68" stroke="url(#g)" stroke-width="1.8" fill="none" opacity=".55"/>
  <line x1="82" y1="68" x2="50" y2="86" stroke="url(#g)" stroke-width="1.8" fill="none" opacity=".55"/>
  <line x1="50" y1="86" x2="18" y2="68" stroke="url(#g)" stroke-width="1.8" fill="none" opacity=".55"/>
  <line x1="18" y1="68" x2="18" y2="32" stroke="url(#g)" stroke-width="1.8" fill="none" opacity=".55"/>
  <line x1="18" y1="32" x2="50" y2="14" stroke="url(#g)" stroke-width="1.8" fill="none" opacity=".55"/>
  <line x1="50" y1="14" x2="50" y2="50" stroke="url(#g)" stroke-width="2.2" fill="none"/>
  <line x1="82" y1="68" x2="50" y2="50" stroke="url(#g)" stroke-width="2.2" fill="none"/>
  <line x1="18" y1="68" x2="50" y2="50" stroke="url(#g)" stroke-width="2.2" fill="none"/>
  <circle cx="50" cy="14" r="5" fill="#c084fc"/>
  <circle cx="82" cy="32" r="3.5" fill="#c084fc"/>
  <circle cx="82" cy="68" r="4" fill="#67e8f9"/>
  <circle cx="50" cy="86" r="3.5" fill="#c084fc"/>
  <circle cx="18" cy="68" r="4" fill="#67e8f9"/>
  <circle cx="18" cy="32" r="3.5" fill="#c084fc"/>
  <circle cx="50" cy="50" r="7" fill="#67e8f9"/>
</svg>