<svg xmlns="http://www.w3.org/2000/svg" style="display:none;">

  <!-- Hamburger / mobile menu -->
  <symbol id="menu-icon" viewBox="0 0 24 24" fill="none" stroke="currentColor" stroke-width="2" stroke-linecap="round" stroke-linejoin="round">
    <line x1="3" y1="6"  x2="21" y2="6"/>
    <line x1="3" y1="12" x2="21" y2="12"/>
    <line x1="3" y1="18" x2="21" y2="18"/>
  </symbol>

  <!-- Home -->
  <symbol id="home-icon" viewBox="0 0 24 24" fill="none" stroke="currentColor" stroke-width="2" stroke-linecap="round" stroke-linejoin="round">
    <path d="M15 21v-8a1 1 0 0 0-1-1h-4a1 1 0 0 0-1 1v8"/>
    <path d="M3 10a2 2 0 0 1 .709-1.528l7-6a2 2 0 0 1 2.582 0l7 6A2 2 0 0 1 21 10v9a2 2 0 0 1-2 2H5a2 2 0 0 1-2-2z"/>
  </symbol>

  <!-- Experience: lucide-briefcase-business -->
  <symbol id="experience-icon" viewBox="0 0 24 24" fill="none" stroke="currentColor" stroke-width="2" stroke-linecap="round" stroke-linejoin="round">
    <path d="M12 12h.01M16 6V4a2 2 0 0 0-2-2h-4a2 2 0 0 0-2 2v2m14 7a18.15 18.15 0 0 1-20 0"/>
    <rect width="20" height="14" x="2" y="6" rx="2"/>
  </symbol>

  <!-- Education: graduation cap -->
  <symbol id="education-icon" viewBox="0 0 24 24" fill="none" stroke="currentColor" stroke-width="2" stroke-linecap="round" stroke-linejoin="round">
    <path d="M22 10v6M2 10l10-5 10 5-10 5z"/>
    <path d="M6 12v5c3 3 9 3 12 0v-5"/>
  </symbol>

  <!-- Skills: star -->
  <symbol id="skills-icon" viewBox="0 0 24 24" fill="none" stroke="currentColor" stroke-width="2" stroke-linecap="round" stroke-linejoin="round">
    <polygon points="12 2 15.09 8.26 22 9.27 17 14.14 18.18 21.02 12 17.77 5.82 21.02 7 14.14 2 9.27 8.91 8.26 12 2"/>
  </symbol>

  <!-- Contact: envelope -->
  <symbol id="contact-icon" viewBox="0 0 24 24" fill="none" stroke="currentColor" stroke-width="2" stroke-linecap="round" stroke-linejoin="round">
    <rect width="20" height="16" x="2" y="4" rx="2"/>
    <path d="m22 7-8.97 5.7a1.94 1.94 0 0 1-2.06 0L2 7"/>
  </symbol>

  <!-- GitHub (fill — use class="icon icon-solid") -->
  <symbol id="github-icon" viewBox="0 0 24 24" fill="currentColor">
    <path d="M12 2C6.477 2 2 6.477 2 12c0 4.418 2.865 8.166 6.839 9.489.5.092.682-.217.682-.482
             0-.237-.009-.868-.013-1.703-2.782.604-3.369-1.341-3.369-1.341-.454-1.155-1.11-1.463-1.11-1.463
             -.908-.62.069-.608.069-.608 1.003.07 1.531 1.03 1.531 1.03.892 1.529 2.341 1.087 2.91.832
             .092-.647.35-1.088.636-1.338-2.22-.253-4.555-1.11-4.555-4.943
             0-1.091.39-1.984 1.029-2.683-.103-.253-.446-1.27.098-2.647
             0 0 .84-.269 2.75 1.025A9.578 9.578 0 0 1 12 6.836a9.59 9.59 0 0 1 2.504.337
             c1.909-1.294 2.747-1.025 2.747-1.025.546 1.377.202 2.394.1 2.647
             .64.699 1.028 1.592 1.028 2.683 0 3.842-2.339 4.687-4.566 4.935
             .359.309.678.919.678 1.852 0 1.336-.012 2.415-.012 2.743
             0 .267.18.579.688.481C19.138 20.163 22 16.418 22 12 22 6.477 17.523 2 12 2z"/>
  </symbol>

  <!-- Sun (light-mode icon) -->
  <symbol id="sun-icon" viewBox="0 0 24 24" fill="none" stroke="currentColor" stroke-width="2" stroke-linecap="round" stroke-linejoin="round">
    <circle cx="12" cy="12" r="4"/>
    <path d="M12 2v2M12 20v2M4.93 4.93l1.41 1.41M17.66 17.66l1.41 1.41M2 12h2M20 12h2M4.93 19.07l1.41-1.41M17.66 6.34l1.41-1.41"/>
  </symbol>

  <!-- Moon (dark-mode icon) -->
  <symbol id="moon-icon" viewBox="0 0 24 24" fill="none" stroke="currentColor" stroke-width="2" stroke-linecap="round" stroke-linejoin="round">
    <path d="M21 12.79A9 9 0 1 1 11.21 3 7 7 0 0 0 21 12.79z"/>
  </symbol>

  <!-- Globe (language selector) -->
  <symbol id="globe-icon" viewBox="0 0 24 24" fill="none" stroke="currentColor" stroke-width="2" stroke-linecap="round" stroke-linejoin="round">
    <circle cx="12" cy="12" r="10"/>
    <line x1="2" y1="12" x2="22" y2="12"/>
    <path d="M12 2a15.3 15.3 0 0 1 4 10 15.3 15.3 0 0 1-4 10 15.3 15.3 0 0 1-4-10 15.3 15.3 0 0 1 4-10z"/>
  </symbol>

  <!-- Chevron down (dropdown arrow) -->
  <symbol id="chevron-down-icon" viewBox="0 0 24 24" fill="none" stroke="currentColor" stroke-width="2.5" stroke-linecap="round" stroke-linejoin="round">
    <polyline points="6 9 12 15 18 9"/>
  </symbol>

  <!-- Check (active language indicator) -->
  <symbol id="check-icon" viewBox="0 0 24 24" fill="none" stroke="currentColor" stroke-width="2.5" stroke-linecap="round" stroke-linejoin="round">
    <polyline points="20 6 9 17 4 12"/>
  </symbol>

  <!--
    Tux — Linux mascot (Use with class="icon icon-solid)"
  -->
  <symbol id="tux-icon" viewBox="0 0 14 14" fill="currentColor">
    <path d="M7.252 1q-.117 0-.24.01C4.9 1.177 5.46 3.414 5.427 4.16c-.038.546-.15.976-.525 1.51-.443.525-1.063 1.375-1.358 2.26-.139.416-.205.842-.143 1.244a.2.2 0 0 0-.056.068c-.13.134-.224.3-.33.42-.1.099-.243.133-.4.2-.156.067-.328.134-.431.34a.7.7 0 0 0-.066.3c0 .1.013.2.027.268.03.2.058.365.02.485-.124.34-.14.573-.053.743.087.167.268.234.47.3.405.1.955.068 1.387.3.463.233.933.335 1.308.235a.88.88 0 0 0 .604-.473c.293-.001.615-.134 1.13-.167.35-.029.787.134 1.289.1.012.067.031.1.057.167l.001.001a.94.94 0 0 0 .942.536c.386-.03.796-.268 1.129-.653.315-.383.841-.542 1.188-.752.174-.1.315-.234.325-.426.011-.2-.1-.406-.357-.689v-.048l-.002-.002c-.085-.1-.125-.267-.169-.463-.042-.2-.09-.393-.245-.523h-.002c-.03-.027-.061-.033-.094-.067a.2.2 0 0 0-.095-.032c.216-.64.132-1.275-.086-1.847-.267-.705-.733-1.319-1.088-1.741-.398-.503-.788-.979-.78-1.685.013-1.076.118-3.066-1.772-3.069m.264 1.702h.007c.106 0 .198.031.292.1a.8.8 0 0 1 .22.266 1 1 0 0 1 .082.362l.003-.03v.052l-.002-.01-.002-.012a.9.9 0 0 1-.075.353.5.5 0 0 1-.106.167l-.044-.02c-.053-.023-.1-.033-.143-.067a1 1 0 0 0-.11-.033c.025-.03.073-.067.092-.1a.6.6 0 0 0 .044-.2v-.01a.6.6 0 0 0-.03-.2c-.023-.067-.051-.1-.092-.167-.042-.033-.084-.066-.134-.066H7.51c-.046 0-.088.015-.13.066a.4.4 0 0 0-.103.167.6.6 0 0 0-.045.2v.01q0 .067.01.133c-.097-.033-.22-.067-.304-.1a1 1 0 0 1-.009-.1v-.01a.9.9 0 0 1 .075-.385.54.54 0 0 1 .215-.266c.086-.065.19-.1.297-.1m-1.48.03h.017a.35.35 0 0 1 .2.067.7.7 0 0 1 .172.233c.045.1.07.2.076.333v.002c.004.067.003.1 0 .133v.04q-.023.008-.042.012c-.076.028-.137.068-.197.1a.5.5 0 0 0 .002-.133V3.51c-.006-.066-.02-.1-.041-.166a.3.3 0 0 0-.083-.134.12.12 0 0 0-.092-.032h-.01c-.036.003-.065.02-.093.066a.3.3 0 0 0-.06.135.5.5 0 0 0-.012.166v.007c.006.067.019.1.04.167.023.067.05.1.083.134q.008.007.017.012c-.035.028-.058.035-.088.068a.15.15 0 0 1-.065.034 1.3 1.3 0 0 1-.138-.201.9.9 0 0 1-.077-.334.9.9 0 0 1 .04-.334.7.7 0 0 1 .141-.267.28.28 0 0 1 .21-.1m.685.853c.165 0 .366.032.607.2.147.1.262.134.527.233h.001c.128.068.203.133.24.2v-.066a.28.28 0 0 1 .007.235c-.061.156-.258.322-.532.422-.134.068-.25.167-.387.233-.138.068-.294.146-.506.134a.6.6 0 0 1-.224-.034 2 2 0 0 1-.161-.099c-.098-.067-.182-.166-.306-.232v-.003h-.003c-.2-.123-.308-.256-.343-.355q-.051-.202.097-.3c.112-.068.19-.136.241-.168a1 1 0 0 0 .088-.066h.001v-.001a.93.93 0 0 1 .42-.3 1 1 0 0 1 .233-.033m1.4 1.071c.179.709.598 1.738.867 2.237.143.267.428.829.551 1.511a1 1 0 0 1 .257.032c.323-.835-.273-1.733-.545-1.982-.11-.1-.116-.168-.061-.168.294.267.682.786.823 1.379.064.267.08.551.01.834.034.014.068.031.103.034.516.267.706.469.615.768v-.02q-.046-.002-.09 0h-.008c.075-.234-.091-.413-.533-.612-.457-.2-.823-.168-.885.232l-.009.068c-.034.011-.07.026-.104.032-.215.134-.331.334-.397.593-.065.267-.085.578-.102.935v.001c-.01.167-.086.42-.16.676-.75.536-1.79.769-2.674.167a1.3 1.3 0 0 0-.201-.267.7.7 0 0 0-.138-.167.8.8 0 0 0 .233-.033.3.3 0 0 0 .157-.167c.054-.134 0-.349-.173-.582-.172-.233-.465-.497-.894-.76-.315-.2-.492-.435-.574-.698a1.57 1.57 0 0 1-.008-.822c.123-.535.436-1.055.637-1.382.053-.032.018.068-.204.487-.198.376-.57 1.248-.061 1.927.019-.495.129-.982.323-1.438.282-.639.872-1.752.918-2.634.024.018.109.068.145.101.109.067.19.167.295.233.105.1.238.167.438.167l.055.003c.206 0 .365-.067.498-.134.145-.067.26-.167.37-.2h.003a.97.97 0 0 0 .522-.35m1.092 4.479c.019.3.172.622.441.688.294.067.717-.166.896-.382l.105-.005c.158-.004.289.005.424.134l.001.001c.104.1.153.266.196.438.042.2.077.39.204.533.243.264.322.453.318.57l.001-.003v.01l-.001-.007c-.008.131-.093.198-.249.298-.315.2-.873.356-1.228.785-.31.368-.686.57-1.018.595-.332.027-.619-.1-.787-.449l-.003-.001c-.105-.2-.06-.513.028-.845.088-.334.214-.673.232-.95.018-.356.038-.667.097-.906.06-.233.154-.399.32-.492zm-5.407.024h.005q.04 0 .079.007c.188.028.353.167.511.376l.455.832.001.002c.122.266.377.532.595.819.217.299.385.565.364.785v.003c-.028.372-.24.574-.562.647-.323.067-.76 0-1.197-.232-.484-.268-1.06-.235-1.429-.301q-.277-.05-.361-.2c-.056-.1-.057-.301.061-.616v-.001l.001-.002c.059-.167.015-.376-.013-.56-.028-.2-.042-.354.021-.47.08-.166.198-.199.345-.266s.32-.1.458-.234v-.002c.129-.134.223-.3.335-.419.095-.1.19-.168.331-.168m3.58-4.536c-.218.1-.473.267-.745.267-.27 0-.485-.133-.64-.233-.077-.067-.14-.134-.186-.167-.082-.067-.072-.167-.037-.167.054.008.064.067.1.1.047.033.107.1.18.167.145.1.34.233.583.233s.526-.133.699-.233c.097-.067.222-.167.324-.233.078-.069.074-.134.14-.134.064.008.016.067-.074.166a4 4 0 0 1-.345.234zm-.542-.792V3.82c-.003-.01.007-.021.015-.025.037-.022.09-.014.13.002.031 0 .08.033.075.067-.003.025-.043.033-.068.033-.027 0-.046-.021-.07-.034-.026-.009-.073-.004-.082-.032m-.275 0c-.01.029-.057.024-.083.033-.024.012-.043.034-.07.034-.025 0-.065-.01-.068-.034-.005-.033.044-.067.075-.067.04-.015.092-.023.13-.002.009.004.017.015.014.025v.01z"/>
  </symbol>

</svg>